<svg xmlns="http://www.w3.org/2000/svg" shape-rendering="crispEdges" viewBox="0 0 5 5">
  <path fill="#f9454c" d="M0 0h1v1H0z"/>
  <path fill="#f86648" d="M1 0h1v1H1z"/>
  <path fill="#fb8141" d="M2 0h1v1H2z"/>
  <path fill="#f99838" d="M3 0h1v1H3z"/>
  <path fill="#fbb22e" d="M4 0h1v1H4z"/>
  <path fill="#f04263" d="M0 1h1v1H0z"/>
  <path fill="#dbbd64" d="M1 1h1v1H1z"/>
  <path fill="#e39a77" d="M2 1h1v1H2z"/>
  <path fill="#e56d82" d="M3 1h1v1H3z"/>
  <path fill="#efc33b" d="M4 1h1v1H4z"/>
  <path fill="#ef3e77" d="M0 2h1v1H0z"/>
  <path fill="#e7b258" d="M1 2h1v1H1z"/>
  <path fill="#eb9365" d="M2 2h1v1H2z"/>
  <path fill="#ec6f71" d="M3 2h1v1H3z"/>
  <path fill="#dcd145" d="M4 2h1v1H4z"/>
  <path fill="#e63487" d="M0 3h1v1H0z"/>
  <path fill="#f1a64b" d="M1 3h1v1H1z"/>
  <path fill="#f38956" d="M2 3h1v1H2z"/>
  <path fill="#f46a5e" d="M3 3h1v1H3z"/>
  <path fill="#c9e14e" d="M4 3h1v1H4z"/>
  <path fill="#e22997" d="M0 4h1v1H0z"/>
  <path fill="#e06f90" d="M1 4h1v1H1z"/>
  <path fill="#d99f85" d="M2 4h1v1H2z"/>
  <path fill="#cac873" d="M3 4h1v1H3z"/>
  <path fill="#b2f057" d="M4 4h1v1H4z"/>
</svg>
